<svg id="Layer_1" data-name="Layer 1" xmlns="http://www.w3.org/2000/svg" viewBox="0 0 300 300"><defs><style>.cls-1{fill:#fff;opacity:0.7;}</style></defs><title>nav-logo-01</title><path class="cls-1" d="M150.34,3.31H3V150.66A147.34,147.34,0,0,0,146.54,298c1.26,0,2.53,0,3.81,0A147.34,147.34,0,0,0,150.34,3.31Zm63,79.72a136.38,136.38,0,0,0-2.1-15.27A114.15,114.15,0,0,0,208.05,55c0.88,0.53,1.74,1.11,2.6,1.67a111.48,111.48,0,0,1,49.9,79.81c-17.23,17.9-39.8,29.91-60,38.35A306.31,306.31,0,0,0,210.39,135C213.65,116.27,214.65,98.76,213.36,83ZM99.84,51.1a111.37,111.37,0,0,1,94.07-3.39c6.9,23.86,6,49.41,3.26,71.14a306.23,306.23,0,0,0-29.58-28.41C153,78.23,138.28,68.63,124,61.9a134.49,134.49,0,0,0-14.27-5.8A116.9,116.9,0,0,0,97.1,52.51C98,52,98.93,51.57,99.84,51.1ZM39.37,145A111.62,111.62,0,0,1,83.06,61.6C107.21,67.43,129,80.84,146.46,94a304.37,304.37,0,0,0-39.34,11.61c-17.85,6.67-33.46,14.65-46.38,23.72a135.67,135.67,0,0,0-12.12,9.52,118.94,118.94,0,0,0-9.37,9.18C39.28,147,39.33,146,39.37,145Zm48,73.29a136.17,136.17,0,0,0,2.1,15.27,114.07,114.07,0,0,0,3.19,12.73c-0.88-.54-1.72-1.12-2.59-1.67A113.73,113.73,0,0,1,75,232.86a111.72,111.72,0,0,1-34.82-68.07c17.24-17.91,39.79-29.91,60-38.34a305.56,305.56,0,0,0-9.84,39.82C87,185,86,202.54,87.33,218.28Zm113.64,32a111.39,111.39,0,0,1-94.08,3.2c-6.85-23.88-5.95-49.42-3.11-71.14a306,306,0,0,0,29.53,28.47c14.62,12.24,29.26,21.87,43.53,28.63a136,136,0,0,0,14.27,5.84,115.07,115.07,0,0,0,12.61,3.61C202.8,249.41,201.88,249.86,201,250.31Zm57.78-75.11a111.68,111.68,0,0,1-41.25,64.38c-24.15-5.87-45.89-19.3-63.35-32.52a305.32,305.32,0,0,0,39.36-11.56c17.87-6.64,33.49-14.6,46.43-23.65a139.38,139.38,0,0,0,12.12-9.51,118.12,118.12,0,0,0,9.38-9.17c0,1-.08,2.05-0.14,3.08A110.9,110.9,0,0,1,258.75,175.21Z"/></svg>