<?xml version="1.0" encoding="utf-8"?>
<!-- Generator: Adobe Illustrator 14.0.0, SVG Export Plug-In . SVG Version: 6.00 Build 43363)  -->
<!DOCTYPE svg PUBLIC "-//W3C//DTD SVG 1.1//EN" "http://www.w3.org/Graphics/SVG/1.1/DTD/svg11.dtd">
<svg version="1.1" id="Layer_1" xmlns="http://www.w3.org/2000/svg" xmlns:xlink="http://www.w3.org/1999/xlink" x="0px" y="0px"
	 width="800px" height="600px" viewBox="0 0 800 600" enable-background="new 0 0 800 600" xml:space="preserve">
<title>nav-logo-01</title>
<path fill="#B4EDF2" d="M400.68,6.62H106v294.7C105.947,461.145,233.308,591.878,393.08,596c2.52,0,5.06,0,7.62,0
	c162.753-0.006,294.686-131.947,294.68-294.7C695.374,138.547,563.433,6.614,400.68,6.62z M526.68,166.06
	c-0.823-10.251-2.225-20.447-4.199-30.54c-1.635-8.622-3.765-17.143-6.381-25.52c1.761,1.06,3.48,2.22,5.2,3.34
	c55.199,35.865,91.728,94.29,99.8,159.62c-34.46,35.8-79.6,59.82-120,76.7c8.333-26.084,14.908-52.697,19.681-79.66
	c6.52-37.46,8.52-72.48,5.939-104L526.68,166.06z M299.68,102.2c58.629-29.955,127.506-32.437,188.14-6.78
	c13.8,47.72,12,98.82,6.52,142.28c-18.428-20.241-38.192-39.224-59.16-56.82C406,156.46,376.56,137.26,348,123.8
	c-9.284-4.409-18.813-8.282-28.54-11.6c-8.279-2.865-16.712-5.262-25.26-7.18C296,104,297.86,103.14,299.68,102.2z M178.74,290
	c3.105-65.765,35.082-126.805,87.38-166.8c48.3,11.66,91.88,38.48,126.8,64.8c-26.719,5.962-53.005,13.72-78.68,23.22
	c-35.7,13.34-66.92,29.3-92.76,47.44c-8.434,5.882-16.527,12.239-24.24,19.04c-6.58,5.771-12.836,11.9-18.74,18.36
	C178.56,294,178.66,292,178.74,290z M274.74,436.58c0.822,10.251,2.224,20.447,4.2,30.54c1.636,8.602,3.767,17.103,6.38,25.46
	c-1.76-1.08-3.44-2.24-5.18-3.34c-10.689-6.98-20.771-14.849-30.14-23.521c-38.503-35.776-63.161-83.981-69.64-136.14
	c34.48-35.82,79.58-59.82,120-76.68c-8.336,26.076-14.911,52.682-19.68,79.64C274,370,272,405.08,274.66,436.56L274.74,436.58z
	 M502.02,500.58c-58.692,29.832-127.575,32.176-188.16,6.4c-13.7-47.761-11.9-98.841-6.22-142.28
	c18.391,20.279,38.122,39.302,59.06,56.939c29.24,24.48,58.52,43.74,87.06,57.261c9.285,4.43,18.813,8.329,28.54,11.68
	c8.263,2.884,16.683,5.295,25.22,7.22c-1.92,1.021-3.76,1.92-5.52,2.82L502.02,500.58z M617.58,350.36
	c-11.493,51.29-40.707,96.884-82.5,128.76c-48.3-11.74-91.78-38.601-126.7-65.04c26.729-5.934,53.028-13.657,78.72-23.12
	c35.74-13.28,66.98-29.2,92.86-47.3c8.425-5.889,16.517-12.238,24.24-19.021c6.588-5.761,12.851-11.884,18.76-18.34
	c0,2-0.16,4.101-0.28,6.16c-0.628,12.779-2.361,25.479-5.18,37.96L617.58,350.36z"/>
</svg>
